<?xml version="1.0" encoding="utf-8"?>
<!-- Generator: Adobe Illustrator 16.0.0, SVG Export Plug-In . SVG Version: 6.00 Build 0)  -->
<!DOCTYPE svg PUBLIC "-//W3C//DTD SVG 1.1//EN" "http://www.w3.org/Graphics/SVG/1.1/DTD/svg11.dtd">
<svg version="1.1" id="Layer_1" xmlns="http://www.w3.org/2000/svg" xmlns:xlink="http://www.w3.org/1999/xlink" x="0px" y="0px"
	 width="612px" height="199px" viewBox="0 0 612 199" enable-background="new 0 0 612 199" xml:space="preserve">
<g id="Layer_2">
	<g>
		<path display="none" fill="#FFFFFF" stroke="#000000" stroke-miterlimit="10" d="M588.805,194.5H23.68
			c-10.361,0-18.837-8.477-18.837-18.838v-150.7c0-10.36,8.476-18.837,18.837-18.837h565.125c10.361,0,18.837,8.477,18.837,18.837
			v150.7C607.642,186.023,599.166,194.5,588.805,194.5z"/>
		<path d="M131.996,99.37c0-14.599,12.244-21.663,12.715-22.134c-7.064-9.891-17.424-11.303-21.192-11.773
			c-8.949-0.941-17.896,5.18-22.134,5.18c-4.709,0-11.773-5.18-19.309-5.18c-9.892,0-18.839,5.65-24.02,14.6
			c-10.361,17.896-2.825,44.268,7.064,58.867c5.181,7.063,10.832,15.07,18.365,14.6c7.534-0.469,10.36-4.709,19.31-4.709
			s11.303,4.709,19.309,4.709c8.005,0,13.188-7.063,17.896-14.129c5.649-8.006,8.006-16.012,8.006-16.48
			C147.536,122.445,131.996,116.795,131.996,99.37z"/>
		<path d="M117.397,56.045c3.77-5.182,6.595-11.773,6.123-18.838c-5.649,0.471-13.187,3.768-16.955,8.947
			c-3.768,4.24-7.063,11.304-6.122,17.896C106.565,64.521,113.158,60.754,117.397,56.045z"/>
		<path d="M239.369,152.588h-10.36l-5.651-17.896H203.58l-5.183,17.896h-9.889l19.779-60.752h12.244L239.369,152.588z
			 M221.474,127.156l-5.181-16.012c-0.474-1.414-1.413-5.651-3.296-11.304l0,0c-0.474,2.354-1.413,6.595-2.826,11.304l-5.18,16.012
			H221.474z"/>
		<path d="M289.759,130.453c0,7.533-1.883,13.186-6.122,17.895c-3.767,3.769-8.006,5.652-13.657,5.652
			c-5.649,0-9.89-1.885-12.245-6.122l0,0v23.075h-9.889v-47.094c0-4.709,0-9.42-0.47-14.6h8.476l0.472,7.063l0,0
			c3.298-5.18,8.007-8.006,14.6-8.006c5.181,0,9.419,1.886,12.715,6.123C287.876,118.209,289.759,123.389,289.759,130.453z
			 M279.87,130.453c0-4.239-0.942-8.008-2.826-10.361c-1.883-2.824-4.709-4.238-8.479-4.238c-2.354,0-4.709,0.941-6.593,2.355
			c-1.884,1.412-3.296,3.768-3.768,6.121c-0.474,1.414-0.474,2.355-0.474,2.826v7.535c0,3.295,0.943,5.648,2.826,8.006
			c1.883,2.354,4.709,3.296,7.536,3.296c3.767,0,6.592-1.412,8.477-4.238C278.928,138.928,279.87,135.162,279.87,130.453z"/>
		<path d="M340.151,130.453c0,7.533-1.885,13.186-6.123,17.895c-3.768,3.769-8.006,5.652-13.657,5.652
			c-5.649,0-9.89-1.885-12.242-6.122l0,0v23.075h-9.892v-47.094c0-4.709,0-9.42-0.47-14.6h8.476l0.473,7.063l0,0
			c3.297-5.18,8.006-8.006,14.6-8.006c5.18,0,9.419,1.886,12.715,6.123C338.266,118.209,340.151,123.389,340.151,130.453z
			 M330.26,130.453c0-4.239-0.941-8.008-2.826-10.361c-1.883-2.824-4.709-4.238-8.477-4.238c-2.354,0-4.711,0.941-6.595,2.355
			c-1.884,1.412-3.297,3.768-3.768,6.121c-0.472,1.414-0.472,2.355-0.472,2.826v7.535c0,3.295,0.94,5.648,2.824,8.006
			c1.887,2.354,4.709,3.296,7.535,3.296c3.77,0,6.593-1.412,8.479-4.238C329.319,138.928,330.26,135.162,330.26,130.453z"/>
		<path d="M396.66,135.633c0,5.182-1.884,9.42-5.181,12.715c-3.768,3.768-9.418,5.182-16.482,5.182
			c-6.593,0-11.771-1.414-15.54-3.768l2.354-8.007c4.239,2.354,8.948,3.769,14.128,3.769c3.769,0,6.594-0.94,8.479-2.354
			c1.883-1.884,2.824-3.77,2.824-6.594c0-2.354-0.941-4.711-2.354-6.121c-1.884-1.887-4.709-3.299-8.479-4.709
			c-10.832-3.77-16.013-9.893-16.013-17.428c0-5.18,1.885-8.946,5.651-12.242c3.768-3.296,8.477-4.71,15.068-4.71
			c5.651,0,9.892,0.941,13.657,2.826l-2.354,8.005c-3.297-1.885-7.064-2.825-11.773-2.825c-3.297,0-6.123,0.94-8.006,2.354
			c-1.413,1.412-2.354,3.295-2.354,5.65c0,2.354,0.941,4.238,2.824,6.122c1.413,1.413,4.71,2.825,8.949,4.71
			c5.18,1.883,8.947,4.709,11.773,7.535C395.25,128.098,396.66,131.395,396.66,135.633z"/>
		<path d="M428.686,116.324h-10.832v21.193c0,5.18,1.885,8.004,5.652,8.004c1.883,0,3.296,0,4.236-0.472l0.473,7.535
			c-1.886,0.94-4.238,0.94-7.535,0.94c-3.77,0-7.064-0.94-8.947-3.297c-2.354-2.354-3.298-6.123-3.298-11.771V116.32h-6.593v-7.533
			h6.593v-8.008l9.419-2.823v10.831h10.832V116.324L428.686,116.324z"/>
		<path d="M477.193,130.453c0,6.593-1.884,12.244-5.651,16.482c-4.236,4.236-9.419,6.592-16.012,6.592
			c-6.594,0-11.771-2.354-15.541-6.592c-3.768-4.24-5.648-9.418-5.648-16.014c0-6.594,1.883-12.242,6.121-16.482
			c3.768-4.236,9.419-6.592,16.013-6.592c6.593,0,11.771,2.354,15.541,6.592C475.309,118.68,477.193,123.859,477.193,130.453z
			 M466.83,130.924c0-4.238-0.939-7.535-2.824-10.361c-1.886-3.295-5.182-5.18-8.947-5.18s-7.064,1.885-8.947,5.18
			c-1.885,2.826-2.826,6.596-2.826,10.361c0,4.238,0.941,7.535,2.826,10.36c1.883,3.297,5.182,5.181,8.947,5.181
			s6.593-1.884,8.947-5.181C465.891,138.459,466.83,134.691,466.83,130.924z"/>
		<path d="M508.743,117.266c-0.94,0-1.884-0.472-3.297-0.472c-3.296,0-6.122,1.414-8.006,3.769
			c-1.413,2.354-2.354,5.183-2.354,8.479v23.074h-9.892v-30.139c0-5.183,0-9.42-0.471-13.658h8.478l0.472,8.478h0.472
			c0.941-2.823,2.825-5.181,4.709-7.063c2.355-1.414,4.71-2.354,7.063-2.354c0.94,0,1.884,0,2.354,0v9.891h0.471V117.266z"/>
		<path d="M552.073,128.568c0,1.885,0,3.297-0.472,4.238h-29.198c0,4.237,1.413,7.533,4.238,9.891
			c2.354,1.884,5.65,3.296,9.419,3.296c4.238,0,8.477-0.472,11.771-1.884l1.413,6.594c-4.236,1.885-8.945,2.824-14.6,2.824
			c-6.593,0-12.244-1.883-16.012-6.121c-3.77-3.768-5.65-9.42-5.65-16.012c0-6.596,1.883-12.244,5.18-16.482
			c3.77-4.709,8.948-7.064,15.541-7.064c6.122,0,11.305,2.355,14.128,7.064C551.129,118.68,552.073,123.389,552.073,128.568z
			 M543.122,126.214c0-2.825-0.471-5.18-1.884-7.534c-1.885-2.826-4.237-4.238-7.534-4.238c-3.298,0-5.65,1.412-7.534,3.77
			c-1.412,1.883-2.354,4.709-2.825,7.535h19.778L543.122,126.214L543.122,126.214z"/>
		<g>
			<path d="M199.07,47.825h-8.609v-3.108h20.962v3.108h-8.654v25.204h-3.697L199.07,47.825L199.07,47.825z"/>
			<path d="M223.011,73.029l-0.294-2.563h-0.126c-1.134,1.596-3.318,3.024-6.217,3.024c-4.117,0-6.217-2.898-6.217-5.839
				c0-4.916,4.367-7.604,12.224-7.563v-0.42c0-1.68-0.462-4.705-4.621-4.705c-1.891,0-3.865,0.588-5.293,1.512l-0.84-2.437
				c1.68-1.093,4.117-1.806,6.679-1.806c6.217,0,7.729,4.242,7.729,8.316v7.604c0,1.765,0.084,3.486,0.336,4.873h-3.36V73.029z
				 M222.465,62.654c-4.033-0.084-8.611,0.63-8.611,4.578c0,2.395,1.598,3.529,3.486,3.529c2.646,0,4.327-1.681,4.915-3.402
				c0.126-0.379,0.21-0.799,0.21-1.176V62.654z M217.424,50.262c0.504-1.848,2.394-2.395,2.394-3.949
				c0-0.881-0.63-1.428-1.428-1.428c-0.882,0-1.554,0.715-2.016,1.471l-1.43-0.84c0.716-1.514,2.018-2.815,4.075-2.815
				c2.018,0,3.57,1.302,3.57,3.151c0,2.353-2.227,3.023-3.192,4.914L217.424,50.262z"/>
			<path d="M236.113,46.986c0.042,1.26-0.882,2.268-2.352,2.268c-1.302,0-2.227-1.008-2.227-2.268c0-1.303,0.966-2.312,2.311-2.312
				C235.231,44.675,236.113,45.684,236.113,46.986z M231.996,73.029V52.697h3.695v20.332H231.996z"/>
			<path d="M268.245,52.697c-0.084,1.471-0.168,3.109-0.168,5.588v11.804c0,4.663-0.926,7.519-2.898,9.284
				c-1.974,1.848-4.831,2.438-7.393,2.438c-2.438,0-5.125-0.588-6.766-1.682l0.924-2.814c1.346,0.84,3.445,1.597,5.967,1.597
				c3.778,0,6.553-1.974,6.553-7.099v-2.27h-0.084c-1.134,1.891-3.318,3.402-6.469,3.402c-5.041,0-8.654-4.284-8.654-9.913
				c0-6.89,4.495-10.796,9.158-10.796c3.527,0,5.461,1.848,6.343,3.527h0.084l0.168-3.065L268.245,52.697L268.245,52.697z
				 M264.422,60.723c0-0.631-0.042-1.177-0.21-1.681c-0.672-2.144-2.479-3.907-5.167-3.907c-3.528,0-6.049,2.982-6.049,7.688
				c0,3.99,2.016,7.31,6.007,7.31c2.269,0,4.327-1.428,5.125-3.78c0.21-0.631,0.294-1.345,0.294-1.975V60.723L264.422,60.723z"/>
			<path d="M285.463,73.029l-0.294-2.563h-0.126c-1.134,1.596-3.318,3.024-6.217,3.024c-4.117,0-6.219-2.898-6.219-5.839
				c0-4.916,4.369-7.604,12.226-7.563v-0.42c0-1.68-0.462-4.705-4.621-4.705c-1.893,0-3.865,0.588-5.293,1.512l-0.84-2.437
				c1.68-1.093,4.115-1.806,6.679-1.806c6.217,0,7.729,4.242,7.729,8.316v7.604c0,1.765,0.084,3.486,0.338,4.873h-3.36
				L285.463,73.029L285.463,73.029z M284.917,62.654c-4.033-0.084-8.611,0.63-8.611,4.578c0,2.395,1.596,3.529,3.486,3.529
				c2.646,0,4.327-1.681,4.915-3.402c0.126-0.379,0.21-0.799,0.21-1.176V62.654z"/>
			<path d="M294.449,58.201c0-2.102-0.042-3.823-0.17-5.504h3.234l0.168,3.277h0.126c1.135-1.933,3.024-3.738,6.386-3.738
				c2.772,0,4.873,1.68,5.755,4.074h0.084c0.63-1.133,1.43-2.017,2.271-2.646c1.218-0.924,2.563-1.429,4.494-1.429
				c2.688,0,6.68,1.765,6.68,8.822v11.971h-3.612V61.52c0-3.906-1.429-6.258-4.411-6.258c-2.101,0-3.736,1.553-4.367,3.359
				c-0.168,0.504-0.295,1.176-0.295,1.85V73.03h-3.611V60.848c0-3.234-1.43-5.586-4.243-5.586c-2.312,0-3.99,1.848-4.578,3.696
				c-0.21,0.546-0.295,1.176-0.295,1.806V73.03h-3.61V58.201H294.449z"/>
			<path d="M331.533,63.536c0.084,4.999,3.276,7.058,6.975,7.058c2.646,0,4.243-0.463,5.63-1.051l0.63,2.646
				c-1.303,0.588-3.528,1.26-6.764,1.26c-6.261,0-9.997-4.117-9.997-10.25c0-6.133,3.61-10.965,9.533-10.965
				c6.64,0,8.401,5.84,8.401,9.578c0,0.756-0.084,1.345-0.126,1.723L331.533,63.536L331.533,63.536z M342.371,60.891
				c0.042-2.354-0.966-6.008-5.125-6.008c-3.736,0-5.377,3.445-5.671,6.008H342.371z"/>
			<path d="M372.779,46.859v5.84h5.293v2.814h-5.293v10.963c0,2.521,0.714,3.949,2.772,3.949c0.966,0,1.68-0.126,2.143-0.252
				l0.168,2.771c-0.715,0.295-1.849,0.504-3.275,0.504c-1.724,0-3.108-0.545-3.99-1.553c-1.05-1.092-1.429-2.898-1.429-5.293v-11.09
				h-3.15v-2.814h3.15v-4.873L372.779,46.859z"/>
			<path d="M382.228,59.042c0-2.396-0.042-4.453-0.168-6.343h3.234l0.126,3.99h0.168c0.925-2.729,3.149-4.453,5.629-4.453
				c0.421,0,0.715,0.043,1.051,0.127v3.486c-0.378-0.084-0.756-0.127-1.261-0.127c-2.604,0-4.452,1.975-4.956,4.748
				c-0.084,0.504-0.168,1.092-0.168,1.721v10.838h-3.655V59.042L382.228,59.042z"/>
			<path d="M397.6,63.536c0.084,4.999,3.276,7.058,6.973,7.058c2.646,0,4.243-0.463,5.63-1.051l0.63,2.646
				c-1.303,0.588-3.526,1.26-6.764,1.26c-6.259,0-9.997-4.117-9.997-10.25c0-6.133,3.612-10.965,9.535-10.965
				c6.638,0,8.401,5.84,8.401,9.578c0,0.756-0.084,1.345-0.126,1.723L397.6,63.536L397.6,63.536z M408.438,60.891
				c0.042-2.354-0.966-6.008-5.125-6.008c-3.738,0-5.377,3.445-5.671,6.008H408.438z M404.74,43.919l4.032,6.007h-2.813l-2.438-3.99
				h-0.084L401,49.926h-2.771l3.991-6.007H404.74z"/>
			<path d="M416.581,58.201c0-2.102-0.04-3.823-0.168-5.504h3.276l0.21,3.361h0.084c1.009-1.933,3.361-3.822,6.723-3.822
				c2.813,0,7.185,1.68,7.185,8.652v12.141h-3.697v-11.72c0-3.275-1.218-6.006-4.705-6.006c-2.436,0-4.326,1.721-4.956,3.78
				c-0.168,0.462-0.252,1.092-0.252,1.722V73.03h-3.695V58.201H416.581z"/>
		</g>
	</g>
</g>
</svg>
