<?xml version="1.0" encoding="utf-8"?>
<!-- Generator: Adobe Illustrator 16.0.0, SVG Export Plug-In . SVG Version: 6.00 Build 0)  -->
<!DOCTYPE svg PUBLIC "-//W3C//DTD SVG 1.1//EN" "http://www.w3.org/Graphics/SVG/1.1/DTD/svg11.dtd">
<svg version="1.1" id="Badges" xmlns="http://www.w3.org/2000/svg" xmlns:xlink="http://www.w3.org/1999/xlink" x="0px" y="0px"
	 width="612px" height="199px" viewBox="0 0 612 199" enable-background="new 0 0 612 199" xml:space="preserve">
<g>
	<path display="none" fill="#FFFFFF" stroke="#000000" stroke-miterlimit="10" d="M589.911,194.75H26.288
		c-10.333,0-18.788-8.453-18.788-18.787v-150.3c0-10.333,8.455-18.788,18.788-18.788h563.624c10.333,0,18.788,8.455,18.788,18.788
		v150.3C608.699,186.297,600.244,194.75,589.911,194.75z"/>
	
		<linearGradient id="SVGID_1_" gradientUnits="userSpaceOnUse" x1="161.5159" y1="-255.373" x2="167.0153" y2="-232.7877" gradientTransform="matrix(4.7813 0 0 4.7813 -688.4072 1258.7368)">
		<stop  offset="0" style="stop-color:#006884"/>
		<stop  offset="1" style="stop-color:#8AD1D0"/>
	</linearGradient>
	<path fill="url(#SVGID_1_)" d="M53.53,98.934V49.617c0-2.819,2.349-5.167,4.697-5.167s3.288,0.47,4.697,1.409l90.648,49.787
		c1.88,0.938,2.818,2.349,2.818,3.756c0,1.41-0.938,2.818-2.818,3.759l-90.648,49.786c-0.94,0.471-2.349,1.41-4.697,1.41
		s-4.697-2.35-4.697-5.168V98.934z"/>
	
		<linearGradient id="SVGID_2_" gradientUnits="userSpaceOnUse" x1="154.8069" y1="-252.1294" x2="169.7929" y2="-244.0278" gradientTransform="matrix(4.7813 0 0 4.7813 -688.4072 1258.7368)">
		<stop  offset="0" style="stop-color:#24BBB6"/>
		<stop  offset="1" style="stop-color:#DBE692"/>
	</linearGradient>
	<path fill="url(#SVGID_2_)" d="M112.241,99.402L57.286,44.45c0.47,0,0.47,0,0.939,0c2.349,0,3.288,0.47,4.697,1.409l66.695,36.636
		L112.241,99.402z"/>
	
		<linearGradient id="SVGID_3_" gradientUnits="userSpaceOnUse" x1="172.071" y1="-238.6304" x2="172.071" y2="-246.4384" gradientTransform="matrix(4.7813 0 0 4.7813 -688.4072 1258.7368)">
		<stop  offset="0" style="stop-color:#FCC072"/>
		<stop  offset="1" style="stop-color:#F58A5B"/>
	</linearGradient>
	<path fill="url(#SVGID_3_)" d="M129.149,115.842L112.24,98.934l17.378-17.377l23.955,13.15c1.878,0.939,2.817,2.348,2.817,3.757
		s-0.938,2.819-2.817,3.759L129.149,115.842z"/>
	
		<linearGradient id="SVGID_4_" gradientUnits="userSpaceOnUse" x1="157.699" y1="-229.1763" x2="169.5382" y2="-241.2253" gradientTransform="matrix(4.7813 0 0 4.7813 -688.4072 1258.7368)">
		<stop  offset="0" style="stop-color:#712B8F"/>
		<stop  offset="1" style="stop-color:#EA1D27"/>
	</linearGradient>
	<path fill="url(#SVGID_4_)" d="M57.757,153.418L57.757,153.418l54.484-54.484l16.907,16.908l-66.225,36.167
		C61.514,152.947,60.575,153.418,57.757,153.418C58.227,153.418,58.227,153.418,57.757,153.418z"/>
	<path d="M341.448,166.1c-2.349-1.879-4.227-5.168-5.166-7.045l7.516-3.289c0.47,0.939,1.408,2.35,2.349,3.758
		c1.879,1.879,4.696,3.758,7.515,3.758c2.817,0,6.106-1.41,7.984-3.758c1.409-2.35,2.349-4.697,2.349-7.984v-2.818
		c-5.636,7.047-17.378,6.105-23.954-1.408c-7.046-7.516-7.046-20.196,0-27.711c7.046-7.045,17.38-7.985,23.484-1.41l0,0v-3.287
		h7.985v35.227c0,8.926-3.289,14.092-7.517,17.379c-2.817,2.35-7.045,3.289-10.803,3.289
		C348.963,170.326,344.735,168.918,341.448,166.1L341.448,166.1z M538.246,167.977L538.246,167.977l7.984-18.787l-14.091-32.407
		h7.983l9.864,23.015l9.862-23.016h7.984l-21.604,51.195H538.246L538.246,167.977z M500.201,150.13L500.201,150.13
		c-2.349-2.349-3.288-5.637-3.288-8.924c0-2.817,0.939-5.636,2.817-7.517c3.289-3.287,7.985-4.695,13.151-4.695
		c3.288,0,6.105,0.47,8.455,1.879c0-5.637-4.697-7.984-8.455-7.984c-3.287,0-6.575,1.879-7.984,5.166l-7.045-2.818
		c1.408-3.289,5.166-9.395,14.56-9.395c4.697,0,9.395,1.409,12.212,4.697c2.818,3.289,3.759,7.045,3.759,12.212v19.728h-7.985
		v-3.287c-0.939,1.408-2.817,2.349-4.227,3.287c-1.88,0.939-4.228,1.41-6.575,1.41C506.778,153.418,502.55,152.479,500.201,150.13
		L500.201,150.13z M249.859,133.221L249.859,133.221c0-9.394,7.045-19.728,19.728-19.728c12.212,0,19.728,10.334,19.728,19.728
		c0,9.395-7.045,19.727-19.728,19.727S249.859,142.615,249.859,133.221L249.859,133.221z M292.13,133.221L292.13,133.221
		c0-9.394,7.045-19.728,19.727-19.728c12.213,0,19.729,10.334,19.729,19.728c0,9.395-7.046,19.727-19.729,19.727
		C299.646,152.947,292.13,142.615,292.13,133.221L292.13,133.221z M196.783,143.555L196.783,143.555
		c-11.742-11.742-11.272-31,0.47-43.212c6.105-6.106,13.621-8.924,21.605-8.924c7.516,0,15.03,2.817,20.666,8.454l-5.636,6.105
		c-8.455-8.455-22.075-7.983-30.061,0.469c-8.454,8.925-8.454,22.546,0,31.47c8.455,8.924,22.545,9.396,31,0.47
		c2.818-2.816,3.758-6.574,4.227-10.332h-19.727V119.6h27.712c0.469,1.879,0.469,4.229,0.469,6.576
		c0,7.045-2.817,14.09-7.515,18.788c-5.167,5.166-12.683,7.983-20.197,7.983C211.344,152.479,202.89,149.66,196.783,143.555
		L196.783,143.555z M395.461,146.842L395.461,146.842c-7.046-7.516-7.046-20.195,0-28.181c7.046-7.515,18.787-7.515,25.363,0
		c2.35,2.349,3.757,5.636,5.166,8.924l-25.833,10.804c1.409,3.286,4.697,6.104,9.395,6.104c4.228,0,7.046-1.409,9.864-5.636
		l7.045,4.697l0,0c-0.939,0.938-1.879,1.877-2.35,2.816C416.128,154.357,402.507,154.357,395.461,146.842L395.461,146.842z
		 M444.31,152.479L444.31,152.479v-52.136h16.908c9.862,0,17.848,7.046,17.848,15.499c0,8.455-7.045,15.5-15.969,15.5h-10.334
		v20.667h-8.453V152.479z M483.763,152.479L483.763,152.479v-52.136h7.983v52.136H483.763L483.763,152.479z M377.614,151.539
		L377.614,151.539V93.298h8.454v58.241H377.614L377.614,151.539z M520.866,136.979L520.866,136.979
		c-1.878-1.408-4.695-1.879-7.514-1.879c-5.638,0-8.925,2.817-8.925,6.105c0,3.287,3.288,5.166,6.576,5.166
		C515.7,146.372,520.866,142.615,520.866,136.979L520.866,136.979z M280.388,133.221L280.388,133.221
		c0-5.637-3.757-11.742-10.803-11.742s-10.802,6.105-10.802,11.742s3.757,11.742,10.802,11.742
		C276.161,144.964,280.388,138.857,280.388,133.221L280.388,133.221z M322.659,133.221L322.659,133.221
		c0-5.637-3.758-11.742-10.804-11.742c-7.045,0-10.802,6.105-10.802,11.742s3.757,11.742,10.802,11.742
		C318.903,144.964,322.659,138.857,322.659,133.221L322.659,133.221z M364.463,136.509L364.463,136.509c0-0.47,0-0.938,0.469-1.409
		l0,0c0-0.47,0-1.408,0-1.877c0-0.472,0-1.41,0-1.881v-0.469c0-0.471-0.469-1.409-0.469-1.879c-1.41-4.697-5.639-7.984-9.864-7.984
		c-5.636,0-10.333,5.635-10.333,11.741c0,6.575,4.697,11.742,10.802,11.742C358.824,144.964,362.582,141.675,364.463,136.509
		L364.463,136.509z M398.748,132.281L398.748,132.281l17.38-7.514c-1.88-3.289-4.696-4.229-7.046-4.229
		C402.036,121.009,397.81,128.523,398.748,132.281L398.748,132.281z M470.612,116.313L470.612,116.313
		c0-4.697-3.758-7.984-8.924-7.984h-9.394v16.439h9.861C466.854,124.768,470.612,121.009,470.612,116.313z"/>
	<polygon fill="#FFFFFF" points="544.352,158.584 544.352,158.584 543.883,158.584 543.883,158.584 543.883,158.115 
		543.883,158.115 544.352,158.115 544.352,158.115 543.883,158.115 543.883,158.115 543.883,158.584 543.883,158.584 	"/>
	<path fill="#FFFFFF" d="M544.352,158.584L544.352,158.584C544.352,158.115,544.352,158.115,544.352,158.584L544.352,158.584
		C544.352,158.115,544.352,158.115,544.352,158.584L544.352,158.584L544.352,158.584L544.352,158.584L544.352,158.584
		L544.352,158.584L544.352,158.584L544.352,158.584L544.352,158.584z M544.352,158.115L544.352,158.115L544.352,158.115
		L544.352,158.115L544.352,158.115L544.352,158.115L544.352,158.115L544.352,158.115z"/>
	<polygon fill="#FFFFFF" points="544.352,158.584 544.352,158.584 544.352,158.115 544.352,158.115 544.352,158.115 
		544.352,158.115 544.352,158.115 544.352,158.115 544.352,158.115 544.352,158.115 	"/>
	<path fill="#FFFFFF" d="M544.352,158.584L544.352,158.584L544.352,158.584L544.352,158.584L544.352,158.584L544.352,158.584
		L544.352,158.584L544.352,158.584L544.352,158.584L544.352,158.584z M544.352,158.115L544.352,158.115L544.352,158.115
		L544.352,158.115L544.352,158.115L544.352,158.115L544.352,158.115z"/>
	<polygon fill="#FFFFFF" points="544.352,158.115 544.352,158.115 544.352,158.115 544.352,158.115 544.352,158.584 
		544.352,158.584 	"/>
	<polygon fill="#FFFFFF" points="544.352,158.584 544.352,158.584 544.352,158.115 544.352,158.115 544.352,158.115 
		544.352,158.115 544.352,158.115 544.352,158.115 544.352,158.115 544.352,158.115 	"/>
	<path fill="#FFFFFF" d="M544.352,158.584L544.352,158.584C544.352,158.115,544.352,158.115,544.352,158.584L544.352,158.584
		L544.352,158.584L544.352,158.584L544.352,158.584L544.352,158.584z M544.352,158.584L544.352,158.584L544.352,158.584
		L544.352,158.584L544.352,158.584L544.352,158.584C544.352,158.115,544.352,158.115,544.352,158.584L544.352,158.584z"/>
	<path fill="#FFFFFF" d="M544.823,158.584L544.823,158.584C544.823,158.115,544.823,158.115,544.823,158.584
		C544.823,158.115,544.823,158.115,544.823,158.584L544.823,158.584C544.823,158.115,544.823,158.115,544.823,158.584
		L544.823,158.584L544.823,158.584L544.823,158.584L544.823,158.584L544.823,158.584z M544.823,158.115L544.823,158.115
		L544.823,158.115L544.823,158.115L544.823,158.115L544.823,158.115L544.823,158.115L544.823,158.115L544.823,158.115z
		 M544.823,158.584L544.823,158.584L544.823,158.584L544.823,158.584L544.823,158.584L544.823,158.584
		C544.823,158.115,544.823,158.115,544.823,158.584L544.823,158.584z"/>
	<polygon fill="#FFFFFF" points="544.823,158.115 544.823,158.115 544.823,158.115 544.823,158.115 544.823,158.115 
		544.823,158.115 544.823,158.115 544.823,158.115 544.823,158.584 544.823,158.584 	"/>
	<polygon fill="#FFFFFF" points="544.823,158.584 544.823,158.584 544.823,158.115 544.823,158.115 	"/>
	<path fill="#FFFFFF" d="M544.823,158.584L544.823,158.584C544.823,158.115,544.823,158.115,544.823,158.584
		C544.823,158.115,544.823,158.115,544.823,158.584L544.823,158.584L544.823,158.584L544.823,158.584L544.823,158.584z
		 M544.823,158.115L544.823,158.115C544.823,158.584,544.823,158.584,544.823,158.115
		C544.823,158.584,544.823,158.584,544.823,158.115L544.823,158.115L544.823,158.115L544.823,158.115L544.823,158.115z"/>
	<path fill="#FFFFFF" d="M544.823,158.584L544.823,158.584L544.823,158.584L544.823,158.584L544.823,158.584L544.823,158.584
		L544.823,158.584L544.823,158.584L544.823,158.584C544.823,158.115,544.823,158.115,544.823,158.584
		C544.823,158.115,544.823,158.115,544.823,158.584L544.823,158.584C544.823,158.115,544.823,158.115,544.823,158.584
		C544.823,158.115,544.823,158.115,544.823,158.584L544.823,158.584L544.823,158.584L544.823,158.584L544.823,158.584z"/>
	<path fill="#FFFFFF" d="M545.291,158.584L545.291,158.584C545.291,158.115,545.291,158.115,545.291,158.584
		C544.823,158.115,544.823,158.115,545.291,158.584L545.291,158.584C544.823,158.584,544.823,158.584,545.291,158.584
		L545.291,158.584L545.291,158.584z M545.291,158.115L545.291,158.115C545.291,158.584,545.291,158.584,545.291,158.115
		C545.291,158.584,544.823,158.584,545.291,158.115L545.291,158.115C544.823,158.115,545.291,158.115,545.291,158.115
		L545.291,158.115L545.291,158.115z"/>
	<polygon fill="#FFFFFF" points="545.291,158.584 545.291,158.115 545.291,158.115 545.291,158.115 545.291,158.115 
		545.291,158.115 545.291,158.584 545.291,158.584 545.291,158.115 545.291,158.115 545.291,158.584 545.291,158.584 
		545.291,158.115 545.291,158.115 	"/>
	<path fill="#FFFFFF" d="M545.291,158.584L545.291,158.584L545.291,158.584L545.291,158.584L545.291,158.584L545.291,158.584
		L545.291,158.584L545.291,158.584L545.291,158.584L545.291,158.584z M545.291,158.115L545.291,158.115L545.291,158.115
		L545.291,158.115L545.291,158.115L545.291,158.115L545.291,158.115z"/>
	<path fill="#FFFFFF" d="M545.291,158.584C545.291,158.115,545.291,158.115,545.291,158.584
		C545.291,158.115,545.291,158.115,545.291,158.584C545.291,158.115,545.291,158.115,545.291,158.584
		C545.291,158.115,545.291,158.115,545.291,158.584L545.291,158.584C545.291,158.115,545.291,158.115,545.291,158.584
		C545.291,158.115,545.291,158.115,545.291,158.584C545.291,158.115,545.291,158.115,545.291,158.584
		C545.291,158.115,545.291,158.115,545.291,158.584L545.291,158.584L545.291,158.584L545.291,158.584L545.291,158.584
		L545.291,158.584z"/>
	<polygon fill="#FFFFFF" points="545.762,158.115 545.291,158.115 545.291,158.115 545.762,158.115 545.762,158.584 
		545.762,158.584 	"/>
	<polygon fill="#FFFFFF" points="545.762,158.584 545.762,158.584 545.762,158.115 545.762,158.115 545.762,158.115 
		545.762,158.115 545.762,158.115 545.762,158.115 545.762,158.115 545.762,158.115 	"/>
	<path fill="#FFFFFF" d="M545.762,158.584L545.762,158.584C545.762,158.115,545.762,158.115,545.762,158.584L545.762,158.584
		C545.762,158.115,545.762,158.115,545.762,158.584L545.762,158.584L545.762,158.584L545.762,158.584L545.762,158.584
		L545.762,158.584L545.762,158.584L545.762,158.584L545.762,158.584z M545.762,158.115L545.762,158.115L545.762,158.115
		L545.762,158.115L545.762,158.115L545.762,158.115L545.762,158.115L545.762,158.115z"/>
	<g>
		<path d="M199.07,48.825h-8.61v-3.108h20.962v3.108h-8.654v25.204h-3.697V48.825z"/>
		<path d="M223.011,74.029l-0.294-2.563h-0.126c-1.134,1.596-3.318,3.024-6.217,3.024c-4.117,0-6.217-2.898-6.217-5.839
			c0-4.916,4.368-7.604,12.224-7.563v-0.42c0-1.68-0.462-4.705-4.621-4.705c-1.891,0-3.865,0.588-5.293,1.512l-0.84-2.437
			c1.68-1.093,4.117-1.806,6.679-1.806c6.217,0,7.729,4.242,7.729,8.316v7.604c0,1.765,0.084,3.486,0.336,4.873h-3.36V74.029z
			 M222.465,63.654c-4.033-0.084-8.611,0.63-8.611,4.578c0,2.395,1.597,3.529,3.486,3.529c2.646,0,4.327-1.681,4.915-3.402
			c0.126-0.379,0.21-0.799,0.21-1.176V63.654z M217.424,51.262c0.504-1.848,2.394-2.395,2.394-3.949c0-0.881-0.63-1.428-1.428-1.428
			c-0.882,0-1.554,0.715-2.016,1.471l-1.429-0.84c0.715-1.514,2.017-2.815,4.075-2.815c2.017,0,3.57,1.302,3.57,3.151
			c0,2.353-2.226,3.023-3.192,4.914L217.424,51.262z"/>
		<path d="M236.113,47.986c0.042,1.26-0.882,2.268-2.352,2.268c-1.302,0-2.227-1.008-2.227-2.268c0-1.303,0.966-2.312,2.311-2.312
			C235.231,45.675,236.113,46.684,236.113,47.986z M231.996,74.029V53.697h3.696v20.332H231.996z"/>
		<path d="M268.245,53.697c-0.084,1.471-0.168,3.109-0.168,5.588v11.804c0,4.663-0.925,7.519-2.898,9.284
			c-1.974,1.848-4.831,2.438-7.393,2.438c-2.438,0-5.125-0.588-6.765-1.682l0.924-2.814c1.345,0.84,3.445,1.597,5.966,1.597
			c3.779,0,6.553-1.974,6.553-7.099v-2.27h-0.084c-1.134,1.891-3.318,3.402-6.469,3.402c-5.041,0-8.654-4.284-8.654-9.913
			c0-6.89,4.495-10.796,9.158-10.796c3.528,0,5.461,1.848,6.343,3.527h0.084l0.168-3.065L268.245,53.697L268.245,53.697z
			 M264.422,61.723c0-0.631-0.042-1.177-0.21-1.681c-0.672-2.144-2.479-3.907-5.167-3.907c-3.528,0-6.049,2.982-6.049,7.688
			c0,3.99,2.016,7.31,6.007,7.31c2.269,0,4.327-1.428,5.125-3.78c0.21-0.631,0.294-1.345,0.294-1.975V61.723L264.422,61.723z"/>
		<path d="M285.463,74.029l-0.294-2.563h-0.126c-1.134,1.596-3.318,3.024-6.217,3.024c-4.117,0-6.218-2.898-6.218-5.839
			c0-4.916,4.369-7.604,12.225-7.563v-0.42c0-1.68-0.462-4.705-4.621-4.705c-1.892,0-3.865,0.588-5.293,1.512l-0.84-2.437
			c1.68-1.093,4.116-1.806,6.679-1.806c6.217,0,7.729,4.242,7.729,8.316v7.604c0,1.765,0.084,3.486,0.337,4.873h-3.36V74.029z
			 M284.917,63.654c-4.033-0.084-8.611,0.63-8.611,4.578c0,2.395,1.596,3.529,3.486,3.529c2.646,0,4.327-1.681,4.915-3.402
			c0.126-0.379,0.21-0.799,0.21-1.176V63.654z"/>
		<path d="M294.449,59.201c0-2.102-0.042-3.823-0.169-5.504h3.234l0.168,3.277h0.126c1.135-1.933,3.025-3.738,6.386-3.738
			c2.772,0,4.873,1.68,5.755,4.074h0.084c0.63-1.133,1.429-2.017,2.27-2.646c1.218-0.924,2.563-1.429,4.494-1.429
			c2.688,0,6.68,1.765,6.68,8.822v11.971h-3.612V62.52c0-3.906-1.429-6.258-4.411-6.258c-2.101,0-3.737,1.553-4.368,3.359
			c-0.168,0.504-0.294,1.176-0.294,1.85v12.559h-3.612V61.848c0-3.234-1.429-5.586-4.243-5.586c-2.311,0-3.99,1.848-4.578,3.696
			c-0.21,0.546-0.295,1.176-0.295,1.806v12.266h-3.611V59.201H294.449z"/>
		<path d="M331.534,64.536c0.084,4.999,3.276,7.058,6.974,7.058c2.646,0,4.243-0.463,5.63-1.051l0.63,2.646
			c-1.303,0.588-3.528,1.26-6.764,1.26c-6.26,0-9.997-4.117-9.997-10.25s3.611-10.965,9.534-10.965c6.639,0,8.401,5.84,8.401,9.578
			c0,0.756-0.084,1.345-0.126,1.723L331.534,64.536L331.534,64.536z M342.372,61.891c0.042-2.354-0.966-6.008-5.125-6.008
			c-3.737,0-5.377,3.445-5.671,6.008H342.372z"/>
		<path d="M372.779,47.859v5.84h5.293v2.814h-5.293v10.963c0,2.521,0.714,3.949,2.772,3.949c0.966,0,1.68-0.126,2.143-0.252
			l0.168,2.771c-0.715,0.295-1.849,0.504-3.276,0.504c-1.723,0-3.108-0.545-3.99-1.553c-1.05-1.092-1.429-2.898-1.429-5.293v-11.09
			h-3.15v-2.814h3.15v-4.873L372.779,47.859z"/>
		<path d="M382.228,60.042c0-2.396-0.042-4.453-0.168-6.343h3.234l0.126,3.99h0.168c0.925-2.729,3.15-4.453,5.629-4.453
			c0.421,0,0.715,0.043,1.051,0.127v3.486c-0.378-0.084-0.756-0.127-1.261-0.127c-2.604,0-4.452,1.975-4.956,4.748
			c-0.084,0.504-0.168,1.092-0.168,1.721v10.838h-3.655V60.042L382.228,60.042z"/>
		<path d="M397.6,64.536c0.084,4.999,3.276,7.058,6.973,7.058c2.646,0,4.243-0.463,5.63-1.051l0.63,2.646
			c-1.303,0.588-3.527,1.26-6.764,1.26c-6.259,0-9.997-4.117-9.997-10.25s3.612-10.965,9.535-10.965c6.638,0,8.401,5.84,8.401,9.578
			c0,0.756-0.084,1.345-0.126,1.723L397.6,64.536L397.6,64.536z M408.438,61.891c0.042-2.354-0.966-6.008-5.125-6.008
			c-3.738,0-5.377,3.445-5.671,6.008H408.438z M404.74,44.919l4.032,6.007h-2.813l-2.438-3.99h-0.084L401,50.926h-2.771l3.991-6.007
			H404.74z"/>
		<path d="M416.582,59.201c0-2.102-0.041-3.823-0.168-5.504h3.276l0.21,3.361h0.084c1.009-1.933,3.361-3.822,6.723-3.822
			c2.813,0,7.184,1.68,7.184,8.652v12.141h-3.697V62.309c0-3.275-1.218-6.006-4.705-6.006c-2.436,0-4.326,1.721-4.956,3.78
			c-0.168,0.462-0.252,1.092-0.252,1.722v12.225h-3.696V59.201H416.582z"/>
	</g>
</g>
</svg>
